<?xml version="1.0" encoding="UTF-8" standalone="yes"?>
<!DOCTYPE svg PUBLIC "-//W3C//DTD SVG 1.1//EN" "http://www.w3.org/Graphics/SVG/1.1/DTD/svg11.dtd">
<svg version="1.1" xmlns="http://www.w3.org/2000/svg"
  x="0px" y="0px" width="60px" height="170px" viewBox="0 0 60 170"
  xmlns:xlink="http://www.w3.org/1999/xlink" xml:space="preserve">
<defs>
  <style type="text/css">
    rect { fill: black; }
    rect.bg { fill: white; }
  </style>
  <symbol id="greyscale">
    <!--  y="0"   x="0" fill-opacity="0.0000" width="1" height="1 -->
    <rect y="1"   x="0" fill-opacity="0.0625" width="1" height="1" />
    <rect y="2"   x="0" fill-opacity="0.1250" width="1" height="1" />
    <rect y="3"   x="0" fill-opacity="0.1875" width="1" height="1" />
    <rect y="4"   x="0" fill-opacity="0.2500" width="1" height="1" />
    <rect y="5"   x="0" fill-opacity="0.3125" width="1" height="1" />
    <rect y="6"   x="0" fill-opacity="0.3750" width="1" height="1" />
    <rect y="7"   x="0" fill-opacity="0.4375" width="1" height="1" />
    <rect y="8"   x="0" fill-opacity="0.5000" width="1" height="1" />
    <rect y="9"   x="0" fill-opacity="0.5625" width="1" height="1" />
    <rect y="10"  x="0" fill-opacity="0.6250" width="1" height="1" />
    <rect y="11"  x="0" fill-opacity="0.6875" width="1" height="1" />
    <rect y="12"  x="0" fill-opacity="0.7500" width="1" height="1" />
    <rect y="13"  x="0" fill-opacity="0.8125" width="1" height="1" />
    <rect y="14"  x="0" fill-opacity="0.8750" width="1" height="1" />
    <rect y="15"  x="0" fill-opacity="0.9375" width="1" height="1" />
    <rect y="16"  x="0" fill-opacity="1.0000" width="1" height="1" />
  </symbol>
</defs>

<g transform="scale(30 10)">
  <!-- rect x="0" y="0" width="100%" height="100%" class="bg" / -->
  <use xlink:href="#greyscale" />
  <g transform="translate(1 17) scale(1 -1)"><use xlink:href="#greyscale" /></g>
</g>

</svg>
